<svg id="visual" viewBox="0 0 960 170" width="960" height="170" xmlns="http://www.w3.org/2000/svg" xmlns:xlink="http://www.w3.org/1999/xlink" version="1.1"><rect x="0" y="0" width="960" height="170" fill="#ccfbf1"></rect><path d="M0 52L22.8 49.7C45.7 47.3 91.3 42.7 137 39.7C182.7 36.7 228.3 35.3 274 34.3C319.7 33.3 365.3 32.7 411.2 40.2C457 47.7 503 63.3 548.8 64.5C594.7 65.7 640.3 52.3 686 47C731.7 41.7 777.3 44.3 823 47.2C868.7 50 914.3 53 937.2 54.5L960 56L960 171L937.2 171C914.3 171 868.7 171 823 171C777.3 171 731.7 171 686 171C640.3 171 594.7 171 548.8 171C503 171 457 171 411.2 171C365.3 171 319.7 171 274 171C228.3 171 182.7 171 137 171C91.3 171 45.7 171 22.8 171L0 171Z" fill="#67e8f9"></path><path d="M0 81L22.8 82.8C45.7 84.7 91.3 88.3 137 89.5C182.7 90.7 228.3 89.3 274 87C319.7 84.7 365.3 81.3 411.2 79.3C457 77.3 503 76.7 548.8 79.8C594.7 83 640.3 90 686 90C731.7 90 777.3 83 823 82C868.7 81 914.3 86 937.2 88.5L960 91L960 171L937.2 171C914.3 171 868.7 171 823 171C777.3 171 731.7 171 686 171C640.3 171 594.7 171 548.8 171C503 171 457 171 411.2 171C365.3 171 319.7 171 274 171C228.3 171 182.7 171 137 171C91.3 171 45.7 171 22.8 171L0 171Z" fill="#48b5d0"></path><path d="M0 115L22.8 111.8C45.7 108.7 91.3 102.3 137 102.2C182.7 102 228.3 108 274 107.5C319.7 107 365.3 100 411.2 98.2C457 96.3 503 99.7 548.8 98.2C594.7 96.7 640.3 90.3 686 92C731.7 93.7 777.3 103.3 823 108.2C868.7 113 914.3 113 937.2 113L960 113L960 171L937.2 171C914.3 171 868.7 171 823 171C777.3 171 731.7 171 686 171C640.3 171 594.7 171 548.8 171C503 171 457 171 411.2 171C365.3 171 319.7 171 274 171C228.3 171 182.7 171 137 171C91.3 171 45.7 171 22.8 171L0 171Z" fill="#3085a4"></path><path d="M0 102L22.8 102.2C45.7 102.3 91.3 102.7 137 105.7C182.7 108.7 228.3 114.3 274 116.7C319.7 119 365.3 118 411.2 118.5C457 119 503 121 548.8 120C594.7 119 640.3 115 686 117C731.7 119 777.3 127 823 127.2C868.7 127.3 914.3 119.7 937.2 115.8L960 112L960 171L937.2 171C914.3 171 868.7 171 823 171C777.3 171 731.7 171 686 171C640.3 171 594.7 171 548.8 171C503 171 457 171 411.2 171C365.3 171 319.7 171 274 171C228.3 171 182.7 171 137 171C91.3 171 45.7 171 22.8 171L0 171Z" fill="#1c5876"></path><path d="M0 133L22.8 133.5C45.7 134 91.3 135 137 134C182.7 133 228.3 130 274 129.3C319.7 128.7 365.3 130.3 411.2 131C457 131.7 503 131.3 548.8 133.3C594.7 135.3 640.3 139.7 686 143.3C731.7 147 777.3 150 823 148.5C868.7 147 914.3 141 937.2 138L960 135L960 171L937.2 171C914.3 171 868.7 171 823 171C777.3 171 731.7 171 686 171C640.3 171 594.7 171 548.8 171C503 171 457 171 411.2 171C365.3 171 319.7 171 274 171C228.3 171 182.7 171 137 171C91.3 171 45.7 171 22.8 171L0 171Z" fill="#082f49"></path></svg>