<svg id="visual" viewBox="0 0 450 170" width="450" height="170" xmlns="http://www.w3.org/2000/svg" xmlns:xlink="http://www.w3.org/1999/xlink" version="1.1"><rect x="0" y="0" width="450" height="170" fill="#ccfbf1"></rect><path d="M0 45L10.7 44.5C21.3 44 42.7 43 64.2 48.7C85.7 54.3 107.3 66.7 128.8 64.8C150.3 63 171.7 47 193 40.3C214.3 33.7 235.7 36.3 257 40.8C278.3 45.3 299.7 51.7 321.2 55.7C342.7 59.7 364.3 61.3 385.8 62.7C407.3 64 428.7 65 439.3 65.5L450 66L450 171L439.3 171C428.7 171 407.3 171 385.8 171C364.3 171 342.7 171 321.2 171C299.7 171 278.3 171 257 171C235.7 171 214.3 171 193 171C171.7 171 150.3 171 128.8 171C107.3 171 85.7 171 64.2 171C42.7 171 21.3 171 10.7 171L0 171Z" fill="#67e8f9"></path><path d="M0 69L10.7 67.7C21.3 66.3 42.7 63.7 64.2 69.2C85.7 74.7 107.3 88.3 128.8 91.3C150.3 94.3 171.7 86.7 193 82C214.3 77.3 235.7 75.7 257 72.8C278.3 70 299.7 66 321.2 70C342.7 74 364.3 86 385.8 88.2C407.3 90.3 428.7 82.7 439.3 78.8L450 75L450 171L439.3 171C428.7 171 407.3 171 385.8 171C364.3 171 342.7 171 321.2 171C299.7 171 278.3 171 257 171C235.7 171 214.3 171 193 171C171.7 171 150.3 171 128.8 171C107.3 171 85.7 171 64.2 171C42.7 171 21.3 171 10.7 171L0 171Z" fill="#48b5d0"></path><path d="M0 116L10.7 111.5C21.3 107 42.7 98 64.2 93.8C85.7 89.7 107.3 90.3 128.8 95.3C150.3 100.3 171.7 109.7 193 109.3C214.3 109 235.7 99 257 94.5C278.3 90 299.7 91 321.2 95C342.7 99 364.3 106 385.8 104.7C407.3 103.3 428.7 93.7 439.3 88.8L450 84L450 171L439.3 171C428.7 171 407.3 171 385.8 171C364.3 171 342.7 171 321.2 171C299.7 171 278.3 171 257 171C235.7 171 214.3 171 193 171C171.7 171 150.3 171 128.8 171C107.3 171 85.7 171 64.2 171C42.7 171 21.3 171 10.7 171L0 171Z" fill="#3085a4"></path><path d="M0 120L10.7 119.2C21.3 118.3 42.7 116.7 64.2 119.2C85.7 121.7 107.3 128.3 128.8 128.5C150.3 128.7 171.7 122.3 193 118.3C214.3 114.3 235.7 112.7 257 112.8C278.3 113 299.7 115 321.2 115.2C342.7 115.3 364.3 113.7 385.8 116.7C407.3 119.7 428.7 127.3 439.3 131.2L450 135L450 171L439.3 171C428.7 171 407.3 171 385.8 171C364.3 171 342.7 171 321.2 171C299.7 171 278.3 171 257 171C235.7 171 214.3 171 193 171C171.7 171 150.3 171 128.8 171C107.3 171 85.7 171 64.2 171C42.7 171 21.3 171 10.7 171L0 171Z" fill="#1c5876"></path><path d="M0 144L10.7 143.3C21.3 142.7 42.7 141.3 64.2 140.2C85.7 139 107.3 138 128.8 136.3C150.3 134.7 171.7 132.3 193 132.8C214.3 133.3 235.7 136.7 257 137.8C278.3 139 299.7 138 321.2 137.7C342.7 137.3 364.3 137.7 385.8 136C407.3 134.3 428.7 130.7 439.3 128.8L450 127L450 171L439.3 171C428.7 171 407.3 171 385.8 171C364.3 171 342.7 171 321.2 171C299.7 171 278.3 171 257 171C235.7 171 214.3 171 193 171C171.7 171 150.3 171 128.8 171C107.3 171 85.7 171 64.2 171C42.7 171 21.3 171 10.7 171L0 171Z" fill="#082f49"></path></svg>