<svg id="visual" viewBox="0 0 960 250" width="960" height="250" xmlns="http://www.w3.org/2000/svg" xmlns:xlink="http://www.w3.org/1999/xlink" version="1.1"><rect x="0" y="0" width="960" height="250" fill="#ccfbf1"></rect><path d="M0 102L22.8 98.8C45.7 95.7 91.3 89.3 137 81.7C182.7 74 228.3 65 274 70.5C319.7 76 365.3 96 411.2 93.7C457 91.3 503 66.7 548.8 65.3C594.7 64 640.3 86 686 90.2C731.7 94.3 777.3 80.7 823 80.5C868.7 80.3 914.3 93.7 937.2 100.3L960 107L960 251L937.2 251C914.3 251 868.7 251 823 251C777.3 251 731.7 251 686 251C640.3 251 594.7 251 548.8 251C503 251 457 251 411.2 251C365.3 251 319.7 251 274 251C228.3 251 182.7 251 137 251C91.3 251 45.7 251 22.8 251L0 251Z" fill="#67e8f9"></path><path d="M0 122L22.8 120.2C45.7 118.3 91.3 114.7 137 110.8C182.7 107 228.3 103 274 108.3C319.7 113.7 365.3 128.3 411.2 126.5C457 124.7 503 106.3 548.8 105.2C594.7 104 640.3 120 686 128.2C731.7 136.3 777.3 136.7 823 129.5C868.7 122.3 914.3 107.7 937.2 100.3L960 93L960 251L937.2 251C914.3 251 868.7 251 823 251C777.3 251 731.7 251 686 251C640.3 251 594.7 251 548.8 251C503 251 457 251 411.2 251C365.3 251 319.7 251 274 251C228.3 251 182.7 251 137 251C91.3 251 45.7 251 22.8 251L0 251Z" fill="#48b5d0"></path><path d="M0 118L22.8 124C45.7 130 91.3 142 137 143.7C182.7 145.3 228.3 136.7 274 132.5C319.7 128.3 365.3 128.7 411.2 131C457 133.3 503 137.7 548.8 145.5C594.7 153.3 640.3 164.7 686 160.8C731.7 157 777.3 138 823 135.8C868.7 133.7 914.3 148.3 937.2 155.7L960 163L960 251L937.2 251C914.3 251 868.7 251 823 251C777.3 251 731.7 251 686 251C640.3 251 594.7 251 548.8 251C503 251 457 251 411.2 251C365.3 251 319.7 251 274 251C228.3 251 182.7 251 137 251C91.3 251 45.7 251 22.8 251L0 251Z" fill="#3085a4"></path><path d="M0 189L22.8 187C45.7 185 91.3 181 137 177.7C182.7 174.3 228.3 171.7 274 174.8C319.7 178 365.3 187 411.2 185.8C457 184.7 503 173.3 548.8 171.2C594.7 169 640.3 176 686 179C731.7 182 777.3 181 823 182C868.7 183 914.3 186 937.2 187.5L960 189L960 251L937.2 251C914.3 251 868.7 251 823 251C777.3 251 731.7 251 686 251C640.3 251 594.7 251 548.8 251C503 251 457 251 411.2 251C365.3 251 319.7 251 274 251C228.3 251 182.7 251 137 251C91.3 251 45.7 251 22.8 251L0 251Z" fill="#1c5876"></path><path d="M0 217L22.8 215.3C45.7 213.7 91.3 210.3 137 206.3C182.7 202.3 228.3 197.7 274 200.7C319.7 203.7 365.3 214.3 411.2 217.2C457 220 503 215 548.8 214.3C594.7 213.7 640.3 217.3 686 217.5C731.7 217.7 777.3 214.3 823 213.8C868.7 213.3 914.3 215.7 937.2 216.8L960 218L960 251L937.2 251C914.3 251 868.7 251 823 251C777.3 251 731.7 251 686 251C640.3 251 594.7 251 548.8 251C503 251 457 251 411.2 251C365.3 251 319.7 251 274 251C228.3 251 182.7 251 137 251C91.3 251 45.7 251 22.8 251L0 251Z" fill="#082f49"></path></svg>