<svg id="visual" viewBox="0 0 960 150" width="960" height="150" xmlns="http://www.w3.org/2000/svg" xmlns:xlink="http://www.w3.org/1999/xlink" version="1.1"><rect x="0" y="0" width="960" height="150" fill="#082f49"></rect><path d="M0 84L16 81.7C32 79.3 64 74.7 96 76.7C128 78.7 160 87.3 192 93.2C224 99 256 102 288 104C320 106 352 107 384 96.8C416 86.7 448 65.3 480 62.3C512 59.3 544 74.7 576 84.8C608 95 640 100 672 102.3C704 104.7 736 104.3 768 102.5C800 100.7 832 97.3 864 91.7C896 86 928 78 944 74L960 70L960 151L944 151C928 151 896 151 864 151C832 151 800 151 768 151C736 151 704 151 672 151C640 151 608 151 576 151C544 151 512 151 480 151C448 151 416 151 384 151C352 151 320 151 288 151C256 151 224 151 192 151C160 151 128 151 96 151C64 151 32 151 16 151L0 151Z" fill="#075985" stroke-linecap="round" stroke-linejoin="miter"></path></svg>