<svg id="visual" viewBox="0 0 450 70" width="450" height="70" xmlns="http://www.w3.org/2000/svg" xmlns:xlink="http://www.w3.org/1999/xlink" version="1.1"><rect x="0" y="0" width="450" height="70" fill="#075985"></rect><path d="M0 45L7.5 44.7C15 44.3 30 43.7 45 41.7C60 39.7 75 36.3 90 35.5C105 34.7 120 36.3 135 39C150 41.7 165 45.3 180 47C195 48.7 210 48.3 225 46.2C240 44 255 40 270 36.2C285 32.3 300 28.7 315 27.2C330 25.7 345 26.3 360 28.7C375 31 390 35 405 35.3C420 35.7 435 32.3 442.5 30.7L450 29L450 71L442.5 71C435 71 420 71 405 71C390 71 375 71 360 71C345 71 330 71 315 71C300 71 285 71 270 71C255 71 240 71 225 71C210 71 195 71 180 71C165 71 150 71 135 71C120 71 105 71 90 71C75 71 60 71 45 71C30 71 15 71 7.5 71L0 71Z" fill="#9f1239" stroke-linecap="round" stroke-linejoin="miter"></path></svg>