<svg id="visual" viewBox="0 0 450 70" width="450" height="70" xmlns="http://www.w3.org/2000/svg" xmlns:xlink="http://www.w3.org/1999/xlink" version="1.1"><rect x="0" y="0" width="450" height="70" fill="#9f1239"></rect><path d="M0 31L7.5 33C15 35 30 39 45 39.5C60 40 75 37 90 32.8C105 28.7 120 23.3 135 25.5C150 27.7 165 37.3 180 42.7C195 48 210 49 225 44.7C240 40.3 255 30.7 270 25.7C285 20.7 300 20.3 315 25C330 29.7 345 39.3 360 42.2C375 45 390 41 405 36C420 31 435 25 442.5 22L450 19L450 71L442.5 71C435 71 420 71 405 71C390 71 375 71 360 71C345 71 330 71 315 71C300 71 285 71 270 71C255 71 240 71 225 71C210 71 195 71 180 71C165 71 150 71 135 71C120 71 105 71 90 71C75 71 60 71 45 71C30 71 15 71 7.5 71L0 71Z" fill="#fecdd3" stroke-linecap="round" stroke-linejoin="miter"></path></svg>