<svg id="visual" viewBox="0 0 960 150" width="960" height="150" xmlns="http://www.w3.org/2000/svg" xmlns:xlink="http://www.w3.org/1999/xlink" version="1.1"><rect x="0" y="0" width="960" height="150" fill="#075985"></rect><path d="M0 98L16 97.2C32 96.3 64 94.7 96 90.3C128 86 160 79 192 77.2C224 75.3 256 78.7 288 84.3C320 90 352 98 384 101.7C416 105.3 448 104.7 480 100C512 95.3 544 86.7 576 78.7C608 70.7 640 63.3 672 60.3C704 57.3 736 58.7 768 63.5C800 68.3 832 76.7 864 77.3C896 78 928 71 944 67.5L960 64L960 151L944 151C928 151 896 151 864 151C832 151 800 151 768 151C736 151 704 151 672 151C640 151 608 151 576 151C544 151 512 151 480 151C448 151 416 151 384 151C352 151 320 151 288 151C256 151 224 151 192 151C160 151 128 151 96 151C64 151 32 151 16 151L0 151Z" fill="#9f1239" stroke-linecap="round" stroke-linejoin="miter"></path></svg>