<svg id="visual" viewBox="0 0 960 150" width="960" height="150" xmlns="http://www.w3.org/2000/svg" xmlns:xlink="http://www.w3.org/1999/xlink" version="1.1"><rect x="0" y="0" width="960" height="150" fill="#9f1239"></rect><path d="M0 68L16 72C32 76 64 84 96 85.2C128 86.3 160 80.7 192 72C224 63.3 256 51.7 288 56.3C320 61 352 82 384 93.2C416 104.3 448 105.7 480 96.2C512 86.7 544 66.3 576 55.8C608 45.3 640 44.7 672 54.7C704 64.7 736 85.3 768 91.5C800 97.7 832 89.3 864 78.5C896 67.7 928 54.3 944 47.7L960 41L960 151L944 151C928 151 896 151 864 151C832 151 800 151 768 151C736 151 704 151 672 151C640 151 608 151 576 151C544 151 512 151 480 151C448 151 416 151 384 151C352 151 320 151 288 151C256 151 224 151 192 151C160 151 128 151 96 151C64 151 32 151 16 151L0 151Z" fill="#fecdd3" stroke-linecap="round" stroke-linejoin="miter"></path></svg>