<svg id="visual" viewBox="0 0 450 70" width="450" height="70" xmlns="http://www.w3.org/2000/svg" xmlns:xlink="http://www.w3.org/1999/xlink" version="1.1"><rect x="0" y="0" width="450" height="70" fill="#082f49"></rect><path d="M0 39L7.5 37.8C15 36.7 30 34.3 45 35.2C60 36 75 40 90 42.8C105 45.7 120 47.3 135 48.3C150 49.3 165 49.7 180 44.8C195 40 210 30 225 28.5C240 27 255 34 270 38.7C285 43.3 300 45.7 315 46.8C330 48 345 48 360 47.2C375 46.3 390 44.7 405 42C420 39.3 435 35.7 442.5 33.8L450 32L450 71L442.5 71C435 71 420 71 405 71C390 71 375 71 360 71C345 71 330 71 315 71C300 71 285 71 270 71C255 71 240 71 225 71C210 71 195 71 180 71C165 71 150 71 135 71C120 71 105 71 90 71C75 71 60 71 45 71C30 71 15 71 7.5 71L0 71Z" fill="#075985" stroke-linecap="round" stroke-linejoin="miter"></path></svg>